{
	"asset":{
		"generator":"Khronos glTF Blender I/O v4.0.44",
		"version":"2.0"
	},
	"scene":0,
	"scenes":[
		{
			"name":"Scene",
			"nodes":[
				0
			]
		}
	],
	"nodes":[
		{
			"mesh":0,
			"name":"Curve.001",
			"scale":[
				34.027099609375,
				34.027099609375,
				34.027099609375
			]
		}
	],
	"materials":[
		{
			"doubleSided":true,
			"name":"SVGMat",
			"pbrMetallicRoughness":{
				"baseColorFactor":[
					0.7012202739715576,
					0.5394561290740967,
					0.07618003338575363,
					1
				],
				"metallicFactor":0,
				"roughnessFactor":0.4000000059604645
			}
		}
	],
	"meshes":[
		{
			"name":"Curve.001",
			"primitives":[
				{
					"attributes":{
						"POSITION":0,
						"NORMAL":1,
						"TEXCOORD_0":2
					},
					"indices":3,
					"material":0
				}
			]
		}
	],
	"accessors":[
		{
			"bufferView":0,
			"componentType":5126,
			"count":2388,
			"max":[
				0.06651291996240616,
				0.019999999552965164,
				0.11487895250320435
			],
			"min":[
				-0.07485508173704147,
				-0.019999999552965164,
				-0.11923615634441376
			],
			"type":"VEC3"
		},
		{
			"bufferView":1,
			"componentType":5126,
			"count":2388,
			"type":"VEC3"
		},
		{
			"bufferView":2,
			"componentType":5126,
			"count":2388,
			"type":"VEC2"
		},
		{
			"bufferView":3,
			"componentType":5123,
			"count":7056,
			"type":"SCALAR"
		}
	],
	"bufferViews":[
		{
			"buffer":0,
			"byteLength":28656,
			"byteOffset":0,
			"target":34962
		},
		{
			"buffer":0,
			"byteLength":28656,
			"byteOffset":28656,
			"target":34962
		},
		{
			"buffer":0,
			"byteLength":19104,
			"byteOffset":57312,
			"target":34962
		},
		{
			"buffer":0,
			"byteLength":14112,
			"byteOffset":76416,
			"target":34963
		}
	],
	"buffers":[
		{
			"byteLength":90528,
			"uri":"SekS.bin"
		}
	]
}
